<svg xmlns="http://www.w3.org/2000/svg" viewBox="0 0 1150 900" width="1150" height="900">
  <style>
    text { font-family: 'Helvetica Neue', Helvetica, Arial, 'PingFang SC', 'Microsoft YaHei', 'SimHei', sans-serif; }
  </style>
  <defs>
    <marker id="arrow-blue" markerWidth="10" markerHeight="7" refX="9" refY="3.5" orient="auto">
      <polygon points="0 0, 10 3.5, 0 7" fill="#2563eb"/>
    </marker>
    <marker id="arrow-green" markerWidth="10" markerHeight="7" refX="9" refY="3.5" orient="auto">
      <polygon points="0 0, 10 3.5, 0 7" fill="#16a34a"/>
    </marker>
    <marker id="arrow-red" markerWidth="10" markerHeight="7" refX="9" refY="3.5" orient="auto">
      <polygon points="0 0, 10 3.5, 0 7" fill="#dc2626"/>
    </marker>
    <marker id="arrow-purple" markerWidth="10" markerHeight="7" refX="9" refY="3.5" orient="auto">
      <polygon points="0 0, 10 3.5, 0 7" fill="#9333ea"/>
    </marker>
    <filter id="shadow">
      <feDropShadow dx="0" dy="2" stdDeviation="3" flood-opacity="0.05"/>
    </filter>
  </defs>
  <rect width="1150" height="900" fill="#ffffff"/>
  <text x="575" y="50" text-anchor="middle" fill="#111827" font-size="20" font-weight="600">Incident Flow as Memory Architecture (Mem0 Style / Light)</text>
  <text x="50" y="100" fill="#6b7280" font-size="14" font-weight="600">SENSORY LAYER</text>
  <text x="500" y="100" fill="#9333ea" font-size="14" font-weight="600">ORCHESTRATION LAYER</text>
  <text x="900" y="100" fill="#16a34a" font-size="14" font-weight="600">MEMORY TIER</text>
  <rect x="40.0" y="160.0" width="220" height="80" rx="8" ry="8" fill="#eff6ff" stroke="#bfdbfe" stroke-width="1.5" filter="url(#shadow)"/>
  <text x="150" y="185.0" text-anchor="middle" font-size="14" font-weight="600" fill="#111827">Helpdesk Interface</text>
  <text x="150" y="205.0" text-anchor="middle" font-size="12" fill="#6b7280">User input channel</text>
  <rect x="40.0" y="360.0" width="220" height="80" rx="8" ry="8" fill="#eff6ff" stroke="#bfdbfe" stroke-width="1.5" filter="url(#shadow)"/>
  <text x="150" y="385.0" text-anchor="middle" font-size="14" font-weight="600" fill="#111827">Cron System</text>
  <text x="150" y="405.0" text-anchor="middle" font-size="12" fill="#6b7280">15 Days Pass Trigger</text>
  <rect x="40.0" y="710.0" width="220" height="80" rx="8" ry="8" fill="#fef2f2" stroke="#fecaca" stroke-width="1.5" filter="url(#shadow)"/>
  <text x="150" y="735.0" text-anchor="middle" font-size="14" font-weight="600" fill="#111827">Notification Service</text>
  <text x="150" y="755.0" text-anchor="middle" font-size="12" fill="#6b7280">SMTP Dispatcher</text>
  <rect x="410.0" y="350.0" width="280" height="100" rx="8" ry="8" fill="#faf5ff" stroke="#e9d5ff" stroke-width="1.5" filter="url(#shadow)"/>
  <text x="550" y="375.0" text-anchor="middle" font-size="14" font-weight="600" fill="#111827">Workflow B Engine</text>
  <text x="550" y="395.0" text-anchor="middle" font-size="12" fill="#6b7280">Batch Auto-Closure</text>
  <text x="550" y="411.0" text-anchor="middle" font-size="12" fill="#6b7280">Admin Context</text>
  <rect x="410.0" y="530.0" width="280" height="100" rx="8" ry="8" fill="#faf5ff" stroke="#e9d5ff" stroke-width="1.5" filter="url(#shadow)"/>
  <text x="550" y="555.0" text-anchor="middle" font-size="14" font-weight="600" fill="#111827">Field Sync Component</text>
  <text x="550" y="575.0" text-anchor="middle" font-size="12" fill="#6b7280">State Synchronizer</text>
  <rect x="410.0" y="700.0" width="280" height="100" rx="8" ry="8" fill="#faf5ff" stroke="#e9d5ff" stroke-width="1.5" filter="url(#shadow)"/>
  <text x="550" y="725.0" text-anchor="middle" font-size="14" font-weight="600" fill="#111827">Workflow A Engine</text>
  <text x="550" y="745.0" text-anchor="middle" font-size="12" fill="#6b7280">Auto-In Progress Rule</text>
  <text x="550" y="761.0" text-anchor="middle" font-size="12" fill="#6b7280">State Monitor</text>
  <path d="M 840.0,362.0 L 840.0,438.0 A 110.0,12 0 0,0 1060.0,438.0 L 1060.0,362.0 A 110.0,12 0 0,1 840.0,362.0 Z" fill="#f0fdf4" stroke="#bbf7d0" stroke-width="1.5" filter="url(#shadow)"/>
  <ellipse cx="950" cy="362.0" rx="110.0" ry="12" fill="#f0fdf4" stroke="#bbf7d0" stroke-width="1.5" filter="url(#shadow)"/>
  <text x="950" y="387.0" text-anchor="middle" font-size="14" font-weight="600" fill="#111827">REQ Memory Store</text>
  <text x="950" y="407.0" text-anchor="middle" font-size="12" fill="#6b7280">Long-term Record DB</text>
  <path d="M 840.0,617.0 L 840.0,703.0 A 110.0,12 0 0,0 1060.0,703.0 L 1060.0,617.0 A 110.0,12 0 0,1 840.0,617.0 Z" fill="#f0fdf4" stroke="#bbf7d0" stroke-width="1.5" filter="url(#shadow)"/>
  <ellipse cx="950" cy="617.0" rx="110.0" ry="12" fill="#f0fdf4" stroke="#bbf7d0" stroke-width="1.5" filter="url(#shadow)"/>
  <text x="950" y="642.0" text-anchor="middle" font-size="14" font-weight="600" fill="#111827">INC Memory Store</text>
  <text x="950" y="662.0" text-anchor="middle" font-size="12" fill="#6b7280">Working/Child Ticket DB</text>
  <text x="950" y="678.0" text-anchor="middle" font-size="12" fill="#6b7280">Current State</text>
  <path d="M 260,200 Q 550,200 840,640" stroke="#16a34a" stroke-width="1.5" fill="none" stroke-dasharray="5,4" marker-end="url(#arrow-green)"/>
  <rect x="460.0" y="298.0" width="180" height="24" fill="#ffffff" rx="4" opacity="0.95"/>
  <text x="550.0" y="314.0" text-anchor="middle" fill="#16a34a" font-size="12" font-weight="600">store(parentId=REQ)</text>
  <line x1="260" y1="400" x2="410" y2="400" stroke="#2563eb" stroke-width="1.5" marker-end="url(#arrow-blue)"/>
  <rect x="245.0" y="388.0" width="180" height="24" fill="#ffffff" rx="4" opacity="0.95"/>
  <text x="335.0" y="404.0" text-anchor="middle" fill="#2563eb" font-size="12" font-weight="600">trigger(batch_close)</text>
  <line x1="690" y1="400" x2="840" y2="400" stroke="#16a34a" stroke-width="1.5" stroke-dasharray="5,4" marker-end="url(#arrow-green)"/>
  <rect x="675.0" y="388.0" width="180" height="24" fill="#ffffff" rx="4" opacity="0.95"/>
  <text x="765.0" y="404.0" text-anchor="middle" fill="#16a34a" font-size="12" font-weight="600">update(status=CLOSED)</text>
  <line x1="550" y1="450" x2="550" y2="530" stroke="#2563eb" stroke-width="1.5" marker-end="url(#arrow-blue)"/>
  <rect x="460.0" y="478.0" width="180" height="24" fill="#ffffff" rx="4" opacity="0.95"/>
  <text x="550.0" y="494.0" text-anchor="middle" fill="#2563eb" font-size="12" font-weight="600">dispatch(sync_event)</text>
  <line x1="690" y1="560" x2="840" y2="430" stroke="#16a34a" stroke-width="1.5" marker-end="url(#arrow-green)"/>
  <rect x="675.0" y="483.0" width="180" height="24" fill="#ffffff" rx="4" opacity="0.95"/>
  <text x="765.0" y="499.0" text-anchor="middle" fill="#16a34a" font-size="12" font-weight="600">retrieve(Assignee)</text>
  <line x1="690" y1="600" x2="840" y2="640" stroke="#16a34a" stroke-width="1.5" stroke-dasharray="5,4" marker-end="url(#arrow-green)"/>
  <rect x="675.0" y="608.0" width="180" height="24" fill="#ffffff" rx="4" opacity="0.95"/>
  <text x="765.0" y="624.0" text-anchor="middle" fill="#16a34a" font-size="12" font-weight="600">update(Assignee)</text>
  <line x1="840" y1="680" x2="690" y2="730" stroke="#9333ea" stroke-width="1.5" marker-end="url(#arrow-purple)"/>
  <rect x="675.0" y="693.0" width="180" height="24" fill="#ffffff" rx="4" opacity="0.95"/>
  <text x="765.0" y="709.0" text-anchor="middle" fill="#9333ea" font-size="12" font-weight="600">event(Assignee_Changed)</text>
  <line x1="690" y1="770" x2="840" y2="690" stroke="#16a34a" stroke-width="1.5" stroke-dasharray="5,4" marker-end="url(#arrow-green)"/>
  <rect x="675.0" y="718.0" width="180" height="24" fill="#ffffff" rx="4" opacity="0.95"/>
  <text x="765.0" y="734.0" text-anchor="middle" fill="#16a34a" font-size="12" font-weight="600">update(status=IN_PROGRESS)</text>
  <line x1="410" y1="750" x2="260" y2="750" stroke="#dc2626" stroke-width="1.5" marker-end="url(#arrow-red)"/>
  <rect x="245.0" y="738.0" width="180" height="24" fill="#ffffff" rx="4" opacity="0.95"/>
  <text x="335.0" y="754.0" text-anchor="middle" fill="#dc2626" font-size="12" font-weight="600">dispatch(email_alert)</text>
  <rect x="850" y="800" width="250" height="80" rx="8" fill="#ffffff" stroke="#d1d5db" stroke-width="1.5" filter="url(#shadow)"/>
  <text x="860" y="825" font-size="14" font-weight="600" fill="#111827">Legend</text>
  <line x1="860" y1="845" x2="890" y2="845" stroke="#16a34a" stroke-width="1.5" marker-end="url(#arrow-green)"/>
  <text x="900" y="849" font-size="12" fill="#6b7280">Memory Read retrieve()</text>
  <line x1="860" y1="865" x2="890" y2="865" stroke="#16a34a" stroke-width="1.5" stroke-dasharray="5,4" marker-end="url(#arrow-green)"/>
  <text x="900" y="869" font-size="12" fill="#6b7280">Memory Write store()</text>
</svg>